HIERARCHY
ROOT Hips
{
  OFFSET 10.6641 99.3378 16.8111
  CHANNELS 6 Xposition Yposition Zposition Zrotation Xrotation Yrotation
  JOINT ToSpine
  {
    OFFSET -0.0105055 1.38907 -7.13956
    CHANNELS 3 Zrotation Xrotation Yrotation
    JOINT Spine
    {
      OFFSET 0.0105055 10 1
      CHANNELS 3 Zrotation Xrotation Yrotation
      JOINT Spine1
      {
        OFFSET 0 12 1.60637
        CHANNELS 3 Zrotation Xrotation Yrotation
        JOINT Neck
        {
          OFFSET 0 27 2.26658
          CHANNELS 3 Zrotation Xrotation Yrotation
          JOINT Head
          {
            OFFSET 0 9 2.12705
            CHANNELS 3 Zrotation Xrotation Yrotation
            End Site
            {
              OFFSET 0 11 2
            }
          }
        }
        JOINT LeftShoulder
        {
          OFFSET 8 19.6109 2.86452
          CHANNELS 3 Zrotation Xrotation Yrotation
          JOINT LeftArm
          {
            OFFSET 12 1 0.681055
            CHANNELS 3 Zrotation Xrotation Yrotation
            JOINT LeftForeArm
            {
              OFFSET 19 0 -1.52608
              CHANNELS 3 Zrotation Xrotation Yrotation
              JOINT LeftHand
              {
                OFFSET 23 0 0
                CHANNELS 3 Zrotation Xrotation Yrotation
                End Site
                {
                  OFFSET 10 0 0
                }
              }
            }
          }
        }
        JOINT RightShoulder
        {
          OFFSET -8 19.6109 2.86452
          CHANNELS 3 Zrotation Xrotation Yrotation
          JOINT RightArm
          {
            OFFSET -12 1 0.681055
            CHANNELS 3 Zrotation Xrotation Yrotation
            JOINT RightForeArm
            {
              OFFSET -19 0 -1.52608
              CHANNELS 3 Zrotation Xrotation Yrotation
              JOINT RightHand
              {
                OFFSET -23 0 0
                CHANNELS 3 Zrotation Xrotation Yrotation
                End Site
                {
                  OFFSET -10 0 0
                }
              }
            }
          }
        }
      }
    }
  }
  JOINT LeftUpLeg
  {
    OFFSET 9 -7.17245 0
    CHANNELS 3 Zrotation Xrotation Yrotation
    JOINT LeftLeg
    {
      OFFSET 0 -44.1113 0
      CHANNELS 3 Zrotation Xrotation Yrotation
      JOINT LeftFoot
      {
        OFFSET 0 -36.1829 0
        CHANNELS 3 Zrotation Xrotation Yrotation
        JOINT LeftToeBase
        {
          OFFSET 0 -4.84184 13
          CHANNELS 3 Zrotation Xrotation Yrotation
          End Site
          {
            OFFSET 0 1 6
          }
        }
      }
    }
  }
  JOINT RightUpLeg
  {
    OFFSET -9 -7.17245 0
    CHANNELS 3 Zrotation Xrotation Yrotation
    JOINT RightLeg
    {
      OFFSET 0 -44.0551 0
      CHANNELS 3 Zrotation Xrotation Yrotation
      JOINT RightFoot
      {
        OFFSET 0 -36.1469 0
        CHANNELS 3 Zrotation Xrotation Yrotation
        JOINT RightToeBase
        {
          OFFSET 0 -4.92256 13
          CHANNELS 3 Zrotation Xrotation Yrotation
          End Site
          {
            OFFSET 0 1 6
          }
        }
      }
    }
  }
}
MOTION
Frames:	19
Frame Time:	0.0333333
10.491 99.3261 18.9318 0.729142 -3.71832 -1.26616 0 0 0 2.34653 -0.542461 0.691669 -3.35686 5.65348 1.12938 6.55824 0.980764 -0.991735 -3.99885 -0.267469 1.9058 -34.431 3.60696 -5.38917 -39.5725 27.2636 -14.7098 -5.82151 -13.041 -4.9451 -8.56739 0.202889 -2.71016 25.3564 5.3225 13.2613 52.279 16.3285 5.21141 3.49713 -2.21968 11.3802 3.14168 0.1074 3.80297 -0.455644 3.46566 6.68625 -1.79958 6.8391 -8.43832 5.60987 -7.62935 0.374098 0.0965742 0.385299 -0.500923 -0.195704 5.13561 -7.75917 0.952099 7.04156 -7.95906 -10.0944 -7.54689 -0.667336 2.11499 -7.79192 -0.699318 
10.4847 99.3619 18.9155 0.52829 -3.40604 -1.33803 0 0 0 2.77212 -0.951736 0.774406 -3.59821 5.82128 1.25048 6.55392 0.786035 -1.04637 -3.87312 -0.0354365 1.81976 -34.3108 3.6131 -5.43114 -39.5322 27.2096 -14.9526 -5.86686 -12.9946 -4.70834 -8.88882 0.208612 -2.68289 25.3295 5.3262 13.2866 52.4531 15.876 5.12836 3.25595 -1.74165 11.4691 3.00152 0.109697 3.63017 -0.25145 3.05056 6.71109 -1.79616 6.97917 -8.31878 6.09635 -7.48212 0.398919 0.152575 -0.225975 -0.58303 0.0454187 4.7544 -7.53967 0.908584 7.07818 -8.05606 -9.86558 -7.322 -0.632727 2.13552 -7.85012 -0.788759 
10.4443 99.349 18.9304 0.570651 -3.52079 -1.29082 0 0 0 2.53559 -0.825419 0.701043 -3.31272 5.83976 1.11562 6.14195 0.735022 -0.892901 -3.63926 -0.0272912 1.79107 -34.5523 3.59719 -5.33832 -39.248 27.6531 -14.9241 -5.93929 -13.0559 -4.98825 -8.59938 0.190395 -2.5329 25.1541 5.34563 13.4358 52.4789 16.0481 5.23249 3.35643 -1.87729 11.2911 3.08519 0.10831 3.804 -0.295192 3.13676 6.67231 -1.68952 7.07036 -8.25759 5.70372 -7.7325 0.385904 0.210045 0.562755 -1.00953 0.0106425 4.90406 -7.64555 1.00104 7.06554 -8.13431 -9.97304 -7.29497 -0.637032 2.14979 -7.89665 -0.826189 
10.4319 99.3814 18.9494 0.536807 -3.64292 -1.26183 0 0 0 2.58574 -0.66793 0.703118 -3.33977 5.76849 1.13935 6.30818 0.765006 -1.00417 -3.69452 -0.018996 1.74613 -34.3223 3.63077 -5.47189 -39.4539 27.6122 -14.9207 -5.88971 -12.7713 -4.8897 -8.82287 0.187919 -2.43082 25.3531 5.36754 13.4029 52.2165 16.3339 5.2424 3.41239 -1.95796 11.3309 3.23607 0.103095 3.65911 -0.251848 3.43419 6.69775 -1.71216 6.72944 -8.26976 5.51287 -7.60371 0.366622 0.291496 0.41367 -1.31257 0.109361 5.07366 -7.65234 0.870027 6.98852 -8.21807 -9.18826 -7.49443 -0.603242 1.97733 -7.23427 -0.83699 
10.3976 99.3758 18.9742 0.535864 -3.62536 -1.3443 0 0 0 2.65016 -0.74694 0.747825 -3.48527 5.8424 1.20829 6.38201 0.570262 -1.06267 -3.68998 0.199526 1.70628 -34.1095 3.62972 -5.51756 -39.8504 27.1121 -14.9428 -5.84102 -12.8199 -4.64484 -9.10567 0.219777 -2.76243 25.3491 5.35208 13.3568 52.286 16.1465 5.26953 3.27828 -1.60136 11.377 3.05662 0.0972581 3.6442 -0.262546 3.42265 6.68316 -1.65744 6.76425 -8.23878 5.49945 -7.71045 0.370771 0.221672 0.470887 -1.03647 0.14209 5.11198 -7.56768 0.813836 6.87706 -8.18876 -9.21352 -7.39086 -0.59654 1.99539 -7.34764 -0.652708 
10.3857 99.3473 18.975 0.650707 -3.73596 -1.25896 0 0 0 2.57063 -0.600237 0.72235 -3.66229 5.79263 1.21688 6.58502 0.617098 -1.09871 -3.76779 0.0949673 1.74893 -33.7701 3.64686 -5.6376 -40.1065 27.1046 -14.9744 -5.81739 -12.492 -4.52956 -8.4467 0.205378 -2.78267 25.5961 5.41134 13.4159 52.1015 16.1564 5.2535 3.36307 -1.87737 11.3451 3.3541 0.106598 3.63971 -0.357707 3.44137 6.67504 -1.62259 6.99248 -8.36752 5.17923 -7.83764 0.355157 0.135168 0.813753 -0.764087 -0.0130685 5.28344 -7.68174 0.926899 6.80951 -8.10503 -9.72028 -7.42455 -0.632209 2.06753 -7.59907 -0.742654 
10.3529 99.3746 18.9913 0.683826 -3.78269 -1.33024 0 0 0 2.3637 -0.584945 0.784454 -3.38818 5.81749 1.2256 6.69005 0.660555 -1.1557 -4.04508 0.0661298 1.78824 -33.8485 3.66412 -5.66261 -40.1567 27.1485 -14.925 -5.85946 -12.7953 -4.58644 -8.945 0.20737 -2.65145 25.5744 5.39917 13.3892 51.9915 16.3809 5.31311 3.38359 -1.71958 11.3037 3.2212 0.0996006 3.53876 -0.323525 3.52671 6.78565 -1.73836 6.99074 -8.48028 5.08607 -7.68029 0.341776 0.129321 0.51695 -0.668332 0.0341293 5.39998 -7.5825 0.785143 6.63865 -7.88393 -9.77956 -7.02642 -0.602112 2.20119 -7.99641 -1.28035 
10.3349 99.3184 18.9377 0.544045 -3.50357 -1.51113 0 0 0 2.72977 -0.765323 0.853151 -3.66984 5.71532 1.32339 6.66069 0.722207 -1.21256 -3.93345 0.0500964 1.70116 -33.7588 3.66048 -5.67458 -40.2702 26.8856 -15.1027 -5.81503 -12.1399 -4.07025 -8.52225 0.209787 -2.81353 25.4216 5.38657 13.4273 52.3019 16.1572 5.16042 3.05974 -0.718365 11.4252 3.31998 0.0958042 3.30516 -0.188474 3.01142 6.78289 -1.6569 7.37985 -8.25543 5.386 -7.98447 0.3761 0.163835 0.453715 -0.795116 0.229146 5.0589 -7.30909 0.789949 6.61048 -8.29388 -10.2702 -7.30494 -0.657104 2.12434 -7.82769 -0.698892 
10.3211 99.3444 18.9593 0.486941 -3.48534 -1.64836 0 0 0 2.96572 -0.904507 0.924882 -3.982 5.89687 1.47173 7.35424 0.860167 -1.43503 -4.62677 -0.421363 1.83856 -33.3395 3.65679 -5.76317 -40.5245 27.2187 -15.1189 -5.92913 -12.6983 -4.20826 -8.92262 0.222074 -2.84654 25.7713 5.44788 13.4401 52.0116 15.9492 5.20021 3.22734 -1.65594 11.4684 3.95248 0.113376 3.28455 -0.0812436 3.1368 6.93251 -1.78575 7.14796 -8.26483 5.26488 -7.81783 0.359932 0.222627 0.374185 -1.01946 0.284056 4.99931 -7.28617 0.736544 6.72411 -8.0014 -9.80799 -7.20702 -0.619913 2.11401 -7.70627 -1.06154 
10.3159 99.4238 18.9268 0.384614 -3.35635 -1.59653 0 0 0 3.02096 -0.974203 0.896451 -3.73977 5.83506 1.40551 7.2182 1.20638 -1.4452 -4.89353 -0.980207 1.84447 -33.5977 3.67436 -5.74682 -40.1524 27.6616 -15.0781 -6.08109 -13.6247 -4.46596 -8.92776 0.212383 -2.72121 25.6377 5.42699 13.4431 52.065 16.1323 5.16054 3.27355 -1.75673 11.5483 3.68412 0.100042 3.10575 0.0365104 3.14581 6.92998 -1.85125 6.79163 -8.37962 5.36474 -7.46706 0.350415 0.11351 0.201412 -0.525031 0.362942 4.73924 -7.30731 0.718381 6.90881 -7.80222 -9.22078 -6.80901 -0.549863 2.17525 -7.87524 -1.36897 
10.2832 99.3511 18.8863 0.420479 -3.27344 -1.59816 0 0 0 3.00982 -0.932512 0.90377 -3.93515 5.6947 1.43655 7.66419 1.19653 -1.58782 -5.26287 -0.879878 1.92402 -33.1208 3.6595 -5.82192 -40.7589 27.0554 -15.1065 -5.94463 -13.0242 -4.02145 -8.62611 0.213405 -2.82923 25.6723 5.44137 13.4699 52.1632 16.2402 5.12153 3.13031 -1.09668 11.6004 3.50055 0.0870933 2.84728 0.0360398 2.81908 6.92732 -1.81787 7.20418 -8.43152 5.52928 -7.69784 0.372181 0.0649612 0.172237 -0.312788 0.295 4.62446 -7.32804 0.88724 6.95506 -8.05444 -9.69922 -7.2693 -0.617306 2.08691 -7.64574 -0.873636 
10.2953 99.3487 18.9042 0.633914 -3.52954 -1.48284 0 0 0 2.56666 -0.750784 0.874296 -3.60187 5.81615 1.36886 7.52654 1.12496 -1.60191 -5.10645 -0.793654 1.83325 -33.1867 3.67149 -5.83669 -40.6027 27.4591 -15.0269 -6.05603 -13.501 -4.45722 -9.07639 0.225278 -2.83908 25.6846 5.42919 13.4262 51.9151 16.4625 5.25481 3.40656 -1.89803 11.4705 3.55297 0.0966421 3.13165 -0.23268 3.29017 6.80556 -1.82075 6.75701 -8.12863 5.73978 -7.52595 0.3779 0.337209 -0.197054 -1.36769 0.0237801 4.89124 -7.65054 0.945674 6.9965 -7.89383 -9.54716 -7.40882 -0.61948 2.08593 -7.62565 -0.946952 
10.2719 99.3077 18.822 0.610033 -3.40899 -1.39709 0 0 0 2.72132 -0.68051 0.830169 -3.84811 5.63705 1.35405 7.72308 1.22284 -1.71725 -5.32306 -0.815838 1.83197 -33.0625 3.67099 -5.86503 -40.6949 27.0439 -15.1279 -5.95639 -12.8933 -4.0283 -8.94499 0.235179 -3.00904 25.7295 5.4368 13.427 52.0751 16.2181 5.09322 3.19912 -1.31913 11.444 3.12488 0.0942317 3.45754 -0.180039 2.89901 6.79262 -1.75862 7.19248 -8.23585 5.62484 -7.75023 0.381078 0.282226 0.179566 -1.22106 0.121299 4.77841 -7.43045 0.951047 6.83913 -8.3025 -10.3923 -7.1935 -0.654946 2.2084 -8.13913 -0.734147 
10.2429 99.3235 18.8069 0.566851 -3.22622 -1.48111 0 0 0 2.76018 -0.994358 0.848 -3.84581 5.87033 1.36178 7.64308 1.02203 -1.64544 -5.34482 -0.689171 1.87623 -33.1598 3.64853 -5.78501 -40.5119 27.3904 -15.1315 -6.06908 -13.6494 -4.37309 -9.24686 0.222624 -2.74321 25.7293 5.45552 13.4844 51.9617 16.1939 5.13823 3.14426 -1.34834 11.6112 3.43914 0.0977205 3.27751 -0.025845 2.6397 6.96082 -1.88442 7.34458 -8.38894 5.25012 -7.89012 0.36225 0.218758 0.73701 -1.08751 0.202706 4.58996 -7.3225 0.94688 6.76905 -8.29821 -10.55 -7.02562 -0.649205 2.20581 -8.10002 -0.877593 
10.2816 99.3564 18.7581 0.581379 -3.40289 -1.41283 0 0 0 2.4458 -0.741282 0.851335 -3.22972 5.89347 1.26126 7.08213 0.948681 -1.53981 -4.90762 -0.736976 1.70711 -33.706 3.68816 -5.75602 -39.6661 28.9047 -14.9794 -6.29129 -14.1505 -5.35454 -8.19873 0.183571 -2.56233 25.4035 5.37357 13.3963 52.0255 16.3868 5.23024 3.20558 -1.37507 11.5425 2.54507 0.0808807 3.6283 -0.089329 2.99577 6.89908 -1.91503 6.91187 -8.48799 5.45144 -7.48991 0.35722 0.118561 0.2934 -0.568971 0.150818 4.69666 -7.41294 0.860155 6.95561 -8.08111 -9.93654 -7.25637 -0.631804 2.11306 -7.74407 -0.883641 
10.2771 99.3021 18.7537 0.543899 -3.36987 -1.58514 0 0 0 2.90242 -0.737836 0.902298 -3.95051 5.80725 1.44318 7.63592 1.10162 -1.69728 -5.33428 -0.845853 1.81855 -33.164 3.67719 -5.85641 -40.547 27.4455 -15.1364 -6.02775 -13.0428 -4.2466 -8.54262 0.220516 -2.95305 25.5498 5.41448 13.4489 52.1576 16.2419 5.17961 3.27436 -1.71241 11.5871 2.90395 0.0846732 3.36886 -0.0369404 2.82719 6.99586 -1.92913 7.23893 -8.38059 5.58309 -7.69945 0.375905 0.100902 0.193009 -0.469695 0.14478 4.65821 -7.43767 1.04056 6.88534 -8.20997 -10.5246 -7.20871 -0.664968 2.18471 -8.07717 -0.59733 
10.3048 99.3708 18.7068 0.617723 -3.45325 -1.30916 0 0 0 2.61909 -0.557434 0.784151 -3.59252 5.73187 1.2756 7.39713 1.14981 -1.69158 -5.09514 -0.896603 1.69986 -33.4376 3.69594 -5.83882 -40.1813 27.9802 -15.0842 -6.19923 -13.8335 -4.64659 -8.73578 0.223611 -2.92793 25.5869 5.43105 13.4813 52.0582 16.3558 5.11323 3.29585 -1.61882 11.4764 2.89098 0.0831732 3.53657 -0.231718 3.08408 6.72815 -1.73373 6.67287 -8.21103 5.42245 -7.33038 0.347471 0.321236 0.220842 -1.39077 0.0390591 4.73336 -7.63143 1.04101 6.90672 -7.99844 -10.1012 -6.95908 -0.615861 2.25149 -8.23433 -1.07742 
10.2941 99.4099 18.6976 0.621471 -3.44059 -1.43421 0 0 0 2.57662 -0.542087 0.801192 -3.54302 5.69897 1.28017 7.30143 1.12516 -1.62039 -4.98296 -0.822137 1.71798 -33.5746 3.67464 -5.75276 -40.2037 27.5684 -15.0228 -6.03028 -13.0361 -4.51246 -8.28088 0.219057 -3.02418 25.5936 5.46432 13.5805 52.072 16.3861 5.06162 3.41112 -2.05651 11.4748 2.89789 0.0798765 3.66612 -0.263616 3.10298 6.71035 -1.65074 6.66646 -8.27835 4.80195 -7.36702 0.309239 0.134508 0.686951 -0.732281 0.0386596 4.7288 -7.55948 0.923525 6.89297 -7.79993 -9.55008 -7.08702 -0.591753 2.09055 -7.60803 -1.08423 
10.3063 99.412 18.6786 0.46747 -3.34597 -1.52927 0 0 0 2.86036 -0.72885 0.842092 -3.68634 5.82207 1.35359 7.40786 1.09554 -1.6266 -5.17092 -0.773398 1.78542 -33.5999 3.68384 -5.77015 -40.0899 27.7208 -14.9496 -6.10107 -13.7203 -4.78602 -8.48249 0.214438 -2.89543 25.6994 5.49313 13.6155 51.993 16.2377 4.98884 3.25988 -1.75486 11.6824 3.06114 0.0762264 3.35213 -0.0943434 3.07056 6.78795 -1.7297 6.50686 -8.25959 5.21538 -7.19743 0.328488 0.105882 0.416034 -0.545615 0.226593 4.60016 -7.44471 0.802517 6.94312 -7.95321 -8.74584 -7.50537 -0.575277 1.82681 -6.72337 -0.593018 
